<mxfile host="Electron" agent="Mozilla/5.0 (Windows NT 10.0; Win64; x64) AppleWebKit/537.36 (KHTML, like Gecko) draw.io/24.7.8 Chrome/128.0.6613.36 Electron/32.0.1 Safari/537.36" version="24.7.8" pages="2">
  <diagram name="UseCase" id="M0xOGjdki2et6MLyy9fX">
    <mxGraphModel dx="781" dy="544" grid="1" gridSize="10" guides="1" tooltips="1" connect="1" arrows="1" fold="1" page="1" pageScale="1" pageWidth="850" pageHeight="1100" math="0" shadow="0">
      <root>
        <mxCell id="0" />
        <mxCell id="1" parent="0" />
        <mxCell id="AnQCv14xt-ItweaXGgj_-1" value="Network Admin" style="shape=umlActor;verticalLabelPosition=bottom;verticalAlign=top;html=1;outlineConnect=0;" parent="1" vertex="1">
          <mxGeometry x="70" y="130" width="30" height="60" as="geometry" />
        </mxCell>
        <mxCell id="CnOKWCixgnBJWqTvkO5A-1" value="&lt;font color=&quot;#000000&quot;&gt;View Network Traffic&lt;/font&gt;" style="ellipse;whiteSpace=wrap;html=1;fillStyle=solid;fillColor=#FFFFFF;" vertex="1" parent="1">
          <mxGeometry x="250" y="60" width="120" height="80" as="geometry" />
        </mxCell>
        <mxCell id="CnOKWCixgnBJWqTvkO5A-4" value="&lt;font color=&quot;#000000&quot;&gt;View Alerts&lt;/font&gt;" style="ellipse;whiteSpace=wrap;html=1;fillStyle=solid;fillColor=#FFFFFF;" vertex="1" parent="1">
          <mxGeometry x="250" y="170" width="120" height="80" as="geometry" />
        </mxCell>
        <mxCell id="CnOKWCixgnBJWqTvkO5A-5" value="" style="endArrow=none;html=1;rounded=0;entryX=0;entryY=0.5;entryDx=0;entryDy=0;" edge="1" parent="1" target="CnOKWCixgnBJWqTvkO5A-1">
          <mxGeometry width="50" height="50" relative="1" as="geometry">
            <mxPoint x="85" y="160" as="sourcePoint" />
            <mxPoint x="430" y="260" as="targetPoint" />
          </mxGeometry>
        </mxCell>
        <mxCell id="CnOKWCixgnBJWqTvkO5A-6" value="" style="endArrow=none;html=1;rounded=0;entryX=0;entryY=0.5;entryDx=0;entryDy=0;exitX=0.5;exitY=0.5;exitDx=0;exitDy=0;exitPerimeter=0;" edge="1" parent="1" source="AnQCv14xt-ItweaXGgj_-1" target="CnOKWCixgnBJWqTvkO5A-4">
          <mxGeometry width="50" height="50" relative="1" as="geometry">
            <mxPoint x="380" y="310" as="sourcePoint" />
            <mxPoint x="430" y="260" as="targetPoint" />
          </mxGeometry>
        </mxCell>
      </root>
    </mxGraphModel>
  </diagram>
  <diagram id="o58B9l9HtSRSAuFW7YCm" name="MisUse">
    <mxGraphModel dx="781" dy="544" grid="1" gridSize="10" guides="1" tooltips="1" connect="1" arrows="1" fold="1" page="1" pageScale="1" pageWidth="850" pageHeight="1100" math="0" shadow="0">
      <root>
        <mxCell id="0" />
        <mxCell id="1" parent="0" />
        <mxCell id="uWQAZhvfy8R0NkosePd1-1" value="Network Admin" style="shape=umlActor;verticalLabelPosition=bottom;verticalAlign=top;html=1;outlineConnect=0;" vertex="1" parent="1">
          <mxGeometry x="70" y="130" width="30" height="60" as="geometry" />
        </mxCell>
        <mxCell id="uWQAZhvfy8R0NkosePd1-2" value="&lt;font color=&quot;#000000&quot;&gt;View Network Traffic&lt;/font&gt;" style="ellipse;whiteSpace=wrap;html=1;fillStyle=solid;fillColor=#FFFFFF;" vertex="1" parent="1">
          <mxGeometry x="250" y="60" width="120" height="80" as="geometry" />
        </mxCell>
        <mxCell id="uWQAZhvfy8R0NkosePd1-3" value="&lt;font color=&quot;#000000&quot;&gt;View Alerts&lt;/font&gt;" style="ellipse;whiteSpace=wrap;html=1;fillStyle=solid;fillColor=#FFFFFF;" vertex="1" parent="1">
          <mxGeometry x="250" y="170" width="120" height="80" as="geometry" />
        </mxCell>
        <mxCell id="uWQAZhvfy8R0NkosePd1-4" value="" style="endArrow=none;html=1;rounded=0;entryX=0;entryY=0.5;entryDx=0;entryDy=0;" edge="1" parent="1" target="uWQAZhvfy8R0NkosePd1-2">
          <mxGeometry width="50" height="50" relative="1" as="geometry">
            <mxPoint x="85" y="160" as="sourcePoint" />
            <mxPoint x="430" y="260" as="targetPoint" />
          </mxGeometry>
        </mxCell>
        <mxCell id="uWQAZhvfy8R0NkosePd1-5" value="" style="endArrow=none;html=1;rounded=0;entryX=0;entryY=0.5;entryDx=0;entryDy=0;exitX=0.5;exitY=0.5;exitDx=0;exitDy=0;exitPerimeter=0;" edge="1" parent="1" source="uWQAZhvfy8R0NkosePd1-1" target="uWQAZhvfy8R0NkosePd1-3">
          <mxGeometry width="50" height="50" relative="1" as="geometry">
            <mxPoint x="380" y="310" as="sourcePoint" />
            <mxPoint x="430" y="260" as="targetPoint" />
          </mxGeometry>
        </mxCell>
        <mxCell id="07ok0Il77gQCVmIZ0TzY-1" value="Disable Alerting" style="ellipse;whiteSpace=wrap;html=1;fillStyle=solid;" vertex="1" parent="1">
          <mxGeometry x="470" y="120" width="120" height="80" as="geometry" />
        </mxCell>
        <mxCell id="07ok0Il77gQCVmIZ0TzY-2" value="Malicious Insider" style="shape=umlActor;verticalLabelPosition=bottom;verticalAlign=top;html=1;outlineConnect=0;" vertex="1" parent="1">
          <mxGeometry x="680" y="110" width="30" height="60" as="geometry" />
        </mxCell>
        <mxCell id="07ok0Il77gQCVmIZ0TzY-3" value="" style="endArrow=none;html=1;rounded=0;entryX=1;entryY=0.5;entryDx=0;entryDy=0;exitX=0.5;exitY=0.5;exitDx=0;exitDy=0;exitPerimeter=0;" edge="1" parent="1" source="07ok0Il77gQCVmIZ0TzY-2" target="07ok0Il77gQCVmIZ0TzY-1">
          <mxGeometry width="50" height="50" relative="1" as="geometry">
            <mxPoint x="380" y="310" as="sourcePoint" />
            <mxPoint x="430" y="260" as="targetPoint" />
          </mxGeometry>
        </mxCell>
        <mxCell id="07ok0Il77gQCVmIZ0TzY-4" value="" style="endArrow=none;html=1;rounded=0;entryX=0;entryY=0.5;entryDx=0;entryDy=0;exitX=1;exitY=0.5;exitDx=0;exitDy=0;" edge="1" parent="1" source="uWQAZhvfy8R0NkosePd1-3" target="07ok0Il77gQCVmIZ0TzY-1">
          <mxGeometry width="50" height="50" relative="1" as="geometry">
            <mxPoint x="380" y="310" as="sourcePoint" />
            <mxPoint x="430" y="260" as="targetPoint" />
          </mxGeometry>
        </mxCell>
      </root>
    </mxGraphModel>
  </diagram>
</mxfile>
